name C:\Users\u0101727\Documents\MyRepositories\upper-imu-dc\Results\main_tracking\Case_46\kinematics_filtered.mot
datacolumns 10
datarows 47
range 5.38000000 5.84000000
endheader 
time	clav_prot	clav_elev	scapula_abduction	scapula_elevation	scapula_upward_rot	scapula_winging	plane_elv	shoulder_elv	axial_rot	
          5.38000000	        -30.23777177	          6.64452382	         -1.43297304	         -3.11947817	         50.70920234	         -6.27781445	         65.39420498	         55.61330691	        -10.13487663	
          5.39000000	        -30.15455219	          6.55993970	         -1.52823211	         -3.14934905	         50.38893735	         -6.20468659	         65.47401062	         55.26246798	        -10.12937844	
          5.40000000	        -30.06754771	          6.46980220	         -1.62029907	         -3.18176697	         50.06215571	         -6.12798826	         65.54978171	         54.91248104	        -10.11875003	
          5.41000000	        -29.97691443	          6.37417779	         -1.70955156	         -3.21665842	         49.72872784	         -6.04772789	         65.62158333	         54.56360555	        -10.10405817	
          5.42000000	        -29.88290510	          6.27322514	         -1.79651594	         -3.25389560	         49.38858129	         -5.96396131	         65.68956663	         54.21616274	        -10.08659289	
          5.43000000	        -29.78585977	          6.16718517	         -1.88184659	         -3.29330311	         49.04170240	         -5.87678725	         65.75395139	         53.87052115	        -10.06785093	
          5.44000000	        -29.68619299	          6.05636616	         -1.96629835	         -3.33466784	         48.68813704	         -5.78634074	         65.81500296	         53.52707908	        -10.04951207	
          5.45000000	        -29.58437821	          5.94112495	         -2.05069407	         -3.37775124	         48.32799000	         -5.69278500	         65.87300618	         53.18624595	        -10.03340794	
          5.46000000	        -29.48093071	          5.82184577	         -2.13589013	         -3.42230316	         47.96142275	         -5.59630228	         65.92823969	         52.84842453	        -10.02148285	
          5.47000000	        -29.37638999	          5.69891855	         -2.22274257	         -3.46807587	         47.58864928	         -5.49708450	         65.98095396	         52.51399590	        -10.01574709	
          5.48000000	        -29.27130318	          5.57271863	         -2.31207670	         -3.51483702	         47.20993038	         -5.39532425	         66.03135571	         52.18330820	        -10.01822320	
          5.49000000	        -29.16621034	          5.44358983	         -2.40466237	         -3.56238033	         46.82556648	         -5.29120708	         66.07960067	         51.85666965	        -10.03088643	
          5.50000000	        -29.06163270	          5.31183202	         -2.50119614	         -3.61053329	         46.43588988	         -5.18490544	         66.12579520	         51.53434558	        -10.05560063	
          5.51000000	        -28.95806410	          5.17769413	         -2.60229085	         -3.65916119	         46.04125715	         -5.07657481	         66.17000596	         51.21655834	        -10.09405116	
          5.52000000	        -28.85596581	          5.04137255	         -2.70847162	         -3.70816782	         45.64204267	         -4.96635202	         66.21227554	         50.90348870	        -10.14767698	
          5.53000000	        -28.75576423	          4.90301450	         -2.82017691	         -3.75749296	         45.23863426	         -4.85435588	         66.25264121	         50.59527688	        -10.21760387	
          5.54000000	        -28.65785084	          4.76272555	         -2.93776239	         -3.80710744	         44.83143169	         -4.74068964	         66.29115323	         50.29202162	        -10.30458174	
          5.55000000	        -28.56258351	          4.62057988	         -3.06150535	         -3.85700668	         44.42084846	         -4.62544511	         66.32788960	         49.99377597	        -10.40892933	
          5.56000000	        -28.47028820	          4.47663223	         -3.19160758	         -3.90720344	         44.00731716	         -4.50870791	         66.36296426	         49.70053908	        -10.53049035	
          5.57000000	        -28.38126016	          4.33093001	         -3.32819510	         -3.95772081	         43.59129785	         -4.39056326	         66.39652674	         49.41224412	        -10.66860576	
          5.58000000	        -28.29576400	          4.18352452	         -3.47131364	         -4.00858602	         43.17328862	         -4.27110185	         66.42875217	         49.12874323	        -10.82210721	
          5.59000000	        -28.21403193	          4.03448020	         -3.62092023	         -4.05982565	         42.75383706	         -4.15042518	         66.45982206	         48.84979110	        -10.98933633	
          5.60000000	        -28.13626036	          3.88388108	         -3.77687143	         -4.11146262	         42.33355077	         -4.02864987	         66.48989707	         48.57502965	        -11.16819343	
          5.61000000	        -28.06260469	          3.73183438	         -3.93891031	         -4.16351486	         41.91310499	         -3.90591047	         66.51908470	         48.30397601	        -11.35621702	
          5.62000000	        -27.99317328	          3.57847106	         -4.10665458	         -4.21599535	         41.49324562	         -3.78236065	         66.54740533	         48.03601637	        -11.55069268	
          5.63000000	        -27.92802123	          3.42394402	         -4.27958864	         -4.26891312	         41.07478615	         -3.65817253	         66.57476074	         47.77040738	        -11.74878561	
          5.64000000	        -27.86714507	          3.26842480	         -4.45706227	         -4.32227434	         40.65859756	         -3.53353442	         66.60090911	         47.50628585	        -11.94768758	
          5.65000000	        -27.81047950	          3.11209975	         -4.63829790	         -4.37608280	         40.24559140	         -3.40864726	         66.62544974	         47.24268645	        -12.14476517	
          5.66000000	        -27.75789673	          2.95516671	         -4.82240728	         -4.43033925	         39.83669669	         -3.28372017	         66.64781947	         46.97856602	        -12.33769387	
          5.67000000	        -27.70920906	          2.79783298	         -5.00841744	         -4.48503901	         39.43283230	         -3.15896555	         66.66730155	         46.71283216	        -12.52456240	
          5.68000000	        -27.66417462	          2.64031504	         -5.19530410	         -4.54016798	         39.03487674	         -3.03459435	         66.68304565	         46.44437335	        -12.70393385	
          5.69000000	        -27.62250586	          2.48284005	         -5.38203039	         -4.59569711	         38.64363774	         -2.91081167	         66.69409700	         46.17208798	        -12.87485503	
          5.70000000	        -27.58388031	          2.32564881	         -5.56758783	         -4.65157596	         38.25982372	         -2.78781307	         66.69943113	         45.89491002	        -13.03681156	
          5.71000000	        -27.54795260	          2.16899961	         -5.75103645	         -4.70772597	         37.88401904	         -2.66578181	         66.69799049	         45.61182984	        -13.18963376	
          5.72000000	        -27.51436702	          2.01317218	         -5.93154121	         -4.76403423	         37.51666472	         -2.54488676	         66.68871908	         45.32190974	        -13.33336432	
          5.73000000	        -27.48276961	          1.85847079	         -6.10840219	         -4.82034866	         37.15804548	         -2.42528126	         66.67059144	         45.02429443	        -13.46810401	
          5.74000000	        -27.45281894	          1.70522564	         -6.28107636	         -4.87647531	         36.80828378	         -2.30710233	         66.64263309	         44.71821763	        -13.59385383	
          5.75000000	        -27.42419484	          1.55379170	         -6.44918957	         -4.93217836	         36.46734093	         -2.19047035	         66.60393046	         44.40300634	        -13.71037254	
          5.76000000	        -27.39660443	          1.40454443	         -6.61253781	         -4.98718348	         36.13502485	         -2.07548865	         66.55362914	         44.07808427	        -13.81706597	
          5.77000000	        -27.36978509	          1.25787176	         -6.77107756	         -5.04118465	         35.81100398	         -1.96224282	         66.49092109	         43.74297589	        -13.91292098	
          5.78000000	        -27.34350420	          1.11416262	         -6.92490601	         -5.09385434	         35.49482625	         -1.85079965	         66.41502219	         43.39731212	        -13.99649157	
          5.79000000	        -27.31755586	          0.97379214	         -7.07423235	         -5.14485686	         35.18594201	         -1.74120546	         66.32514327	         43.04083765	        -14.06593888	
          5.80000000	        -27.29175513	          0.83710451	         -7.21934232	         -5.19386385	         34.88372980	         -1.63348406	         66.22045824	         42.67341974	        -14.11912132	
          5.81000000	        -27.26593045	          0.70439473	         -7.36055892	         -5.24057110	         34.58752329	         -1.52763444	         66.10007415	         42.29505749	        -14.15372576	
          5.82000000	        -27.23991528	          0.57589078	         -7.49820218	         -5.28471525	         34.29663845	         -1.42362863	         65.96300739	         41.90589019	        -14.16742659	
          5.83000000	        -27.21354013	          0.45173794	         -7.63255168	         -5.32608906	         34.01039913	         -1.32141017	         65.80817062	         41.50620334	        -14.15805688	
          5.84000000	        -27.18662598	          0.33198695	         -7.76381486	         -5.36455376	         33.72816026	         -1.22089350	         65.63437334	         41.09643100	        -14.12377449	
